<?xml version="1.0" encoding="utf-8"?>
<!-- Generator: Adobe Illustrator 23.0.3, SVG Export Plug-In . SVG Version: 6.00 Build 0)  -->
<svg version="1.1" id="Icons" xmlns="http://www.w3.org/2000/svg" xmlns:xlink="http://www.w3.org/1999/xlink" x="0px" y="0px"
	 viewBox="0 0 32 32" style="enable-background:new 0 0 32 32;" xml:space="preserve">
<style type="text/css">
	.st0{fill:none;stroke:#000000;stroke-width:2;stroke-linecap:round;stroke-linejoin:round;stroke-miterlimit:10;}
</style>
<g>
	<path d="M9.6,30H3c-0.5,0-0.9-0.4-1-0.8c-0.1-0.5,0.2-1,0.7-1.1c1-0.3,1.6-1.3,1.6-2.4v-1c0-1.6,0.6-3.1,1.8-4.2
		c1.1-1,2.5-1.6,3.9-1.6c3,0.1,5.3,2.5,5.4,5.5c0,1.5-0.5,2.9-1.6,4C12.7,29.4,11.2,30,9.6,30z"/>
</g>
<path d="M29.3,5.7c-1-1-2.6-1-3.6,0l-13,11.6c2.2,0.9,3.8,2.7,4.5,5l12.2-13C30.3,8.3,30.2,6.7,29.3,5.7z"/>
</svg>
